<mxfile host="app.diagrams.net" modified="2023-06-19T02:51:18.937Z" agent="Mozilla/5.0 (Windows NT 10.0; Win64; x64; rv:109.0) Gecko/20100101 Firefox/114.0" etag="Okznvile7g2mozHKMW8P" version="21.5.0" type="github">
  <diagram name="Page-1" id="90a13364-a465-7bf4-72fc-28e22215d7a0">
    <mxGraphModel dx="2049" dy="1016" grid="1" gridSize="10" guides="1" tooltips="1" connect="1" arrows="1" fold="1" page="1" pageScale="1.5" pageWidth="1169" pageHeight="826" background="none" math="0" shadow="0">
      <root>
        <mxCell id="0" style=";html=1;" />
        <mxCell id="1" style=";html=1;" parent="0" />
        <mxCell id="3a17f1ce550125da-4" value="DATABASE" style="whiteSpace=wrap;html=1;shadow=1;fontSize=18;fillColor=#f5f5f5;strokeColor=#666666;" parent="1" vertex="1">
          <mxGeometry x="450" y="930" width="120" height="60" as="geometry" />
        </mxCell>
        <mxCell id="MxNS5dehUmEeH4CpXouu-13" style="edgeStyle=orthogonalEdgeStyle;rounded=0;orthogonalLoop=1;jettySize=auto;html=1;entryX=0;entryY=0.5;entryDx=0;entryDy=0;" edge="1" parent="1" source="MxNS5dehUmEeH4CpXouu-1" target="MxNS5dehUmEeH4CpXouu-4">
          <mxGeometry relative="1" as="geometry" />
        </mxCell>
        <mxCell id="MxNS5dehUmEeH4CpXouu-1" value="API GW" style="whiteSpace=wrap;html=1;shadow=1;fontSize=18;fillColor=#f5f5f5;strokeColor=#666666;" vertex="1" parent="1">
          <mxGeometry x="30" y="410" width="100" height="150" as="geometry" />
        </mxCell>
        <mxCell id="MxNS5dehUmEeH4CpXouu-41" style="edgeStyle=orthogonalEdgeStyle;rounded=0;orthogonalLoop=1;jettySize=auto;html=1;entryX=0;entryY=0.5;entryDx=0;entryDy=0;" edge="1" parent="1" source="MxNS5dehUmEeH4CpXouu-3" target="MxNS5dehUmEeH4CpXouu-39">
          <mxGeometry relative="1" as="geometry">
            <Array as="points">
              <mxPoint x="850" y="505" />
              <mxPoint x="850" y="1135" />
            </Array>
          </mxGeometry>
        </mxCell>
        <mxCell id="MxNS5dehUmEeH4CpXouu-3" value="" style="swimlane;startSize=0;" vertex="1" parent="1">
          <mxGeometry x="280" y="220" width="540" height="570" as="geometry" />
        </mxCell>
        <mxCell id="MxNS5dehUmEeH4CpXouu-15" style="edgeStyle=orthogonalEdgeStyle;rounded=0;orthogonalLoop=1;jettySize=auto;html=1;entryX=0;entryY=0.25;entryDx=0;entryDy=0;" edge="1" parent="MxNS5dehUmEeH4CpXouu-3" source="MxNS5dehUmEeH4CpXouu-4" target="MxNS5dehUmEeH4CpXouu-12">
          <mxGeometry relative="1" as="geometry" />
        </mxCell>
        <mxCell id="MxNS5dehUmEeH4CpXouu-4" value="EVENT API" style="whiteSpace=wrap;html=1;shadow=1;fontSize=18;fillColor=#f5f5f5;strokeColor=#666666;" vertex="1" parent="MxNS5dehUmEeH4CpXouu-3">
          <mxGeometry x="60" y="20" width="150" height="70" as="geometry" />
        </mxCell>
        <mxCell id="MxNS5dehUmEeH4CpXouu-14" style="edgeStyle=orthogonalEdgeStyle;rounded=0;orthogonalLoop=1;jettySize=auto;html=1;entryX=0.01;entryY=0.329;entryDx=0;entryDy=0;entryPerimeter=0;" edge="1" parent="MxNS5dehUmEeH4CpXouu-3" source="MxNS5dehUmEeH4CpXouu-5" target="MxNS5dehUmEeH4CpXouu-12">
          <mxGeometry relative="1" as="geometry" />
        </mxCell>
        <mxCell id="MxNS5dehUmEeH4CpXouu-5" value="SSE" style="whiteSpace=wrap;html=1;shadow=1;fontSize=18;fillColor=#f5f5f5;strokeColor=#666666;" vertex="1" parent="MxNS5dehUmEeH4CpXouu-3">
          <mxGeometry x="65" y="150" width="140" height="80" as="geometry" />
        </mxCell>
        <mxCell id="MxNS5dehUmEeH4CpXouu-16" style="edgeStyle=orthogonalEdgeStyle;rounded=0;orthogonalLoop=1;jettySize=auto;html=1;entryX=0;entryY=0.5;entryDx=0;entryDy=0;" edge="1" parent="MxNS5dehUmEeH4CpXouu-3" source="MxNS5dehUmEeH4CpXouu-6" target="MxNS5dehUmEeH4CpXouu-12">
          <mxGeometry relative="1" as="geometry" />
        </mxCell>
        <mxCell id="MxNS5dehUmEeH4CpXouu-6" value="CORE ALARM" style="whiteSpace=wrap;html=1;shadow=1;fontSize=18;fillColor=#f5f5f5;strokeColor=#666666;" vertex="1" parent="MxNS5dehUmEeH4CpXouu-3">
          <mxGeometry x="65" y="280" width="135" height="90" as="geometry" />
        </mxCell>
        <mxCell id="MxNS5dehUmEeH4CpXouu-18" style="edgeStyle=orthogonalEdgeStyle;rounded=0;orthogonalLoop=1;jettySize=auto;html=1;entryX=0;entryY=0.75;entryDx=0;entryDy=0;" edge="1" parent="MxNS5dehUmEeH4CpXouu-3" source="MxNS5dehUmEeH4CpXouu-11" target="MxNS5dehUmEeH4CpXouu-12">
          <mxGeometry relative="1" as="geometry" />
        </mxCell>
        <mxCell id="MxNS5dehUmEeH4CpXouu-11" value="API MOBILE" style="whiteSpace=wrap;html=1;shadow=1;fontSize=18;fillColor=#f5f5f5;strokeColor=#666666;" vertex="1" parent="MxNS5dehUmEeH4CpXouu-3">
          <mxGeometry x="60" y="430" width="135" height="90" as="geometry" />
        </mxCell>
        <mxCell id="MxNS5dehUmEeH4CpXouu-12" value="&lt;div&gt;KAFKA&lt;/div&gt;&lt;div&gt;ZOOKEEPER&lt;br&gt;&lt;/div&gt;" style="whiteSpace=wrap;html=1;shadow=1;fontSize=18;fillColor=#f5f5f5;strokeColor=#666666;" vertex="1" parent="MxNS5dehUmEeH4CpXouu-3">
          <mxGeometry x="320" y="20" width="130" height="520" as="geometry" />
        </mxCell>
        <mxCell id="MxNS5dehUmEeH4CpXouu-17" style="edgeStyle=orthogonalEdgeStyle;rounded=0;orthogonalLoop=1;jettySize=auto;html=1;entryX=0.5;entryY=0;entryDx=0;entryDy=0;" edge="1" parent="1" source="MxNS5dehUmEeH4CpXouu-11" target="3a17f1ce550125da-4">
          <mxGeometry relative="1" as="geometry" />
        </mxCell>
        <mxCell id="MxNS5dehUmEeH4CpXouu-19" style="edgeStyle=orthogonalEdgeStyle;rounded=0;orthogonalLoop=1;jettySize=auto;html=1;entryX=0;entryY=0.5;entryDx=0;entryDy=0;" edge="1" parent="1" source="MxNS5dehUmEeH4CpXouu-6" target="3a17f1ce550125da-4">
          <mxGeometry relative="1" as="geometry">
            <Array as="points">
              <mxPoint x="220" y="545" />
              <mxPoint x="220" y="960" />
            </Array>
          </mxGeometry>
        </mxCell>
        <mxCell id="MxNS5dehUmEeH4CpXouu-20" value="" style="swimlane;startSize=0;" vertex="1" parent="1">
          <mxGeometry x="1200" y="200" width="270" height="320" as="geometry" />
        </mxCell>
        <mxCell id="MxNS5dehUmEeH4CpXouu-21" value="MinIO" style="whiteSpace=wrap;html=1;shadow=1;fontSize=18;fillColor=#f5f5f5;strokeColor=#666666;" vertex="1" parent="MxNS5dehUmEeH4CpXouu-20">
          <mxGeometry x="60" y="50" width="150" height="70" as="geometry" />
        </mxCell>
        <mxCell id="MxNS5dehUmEeH4CpXouu-24" value="JOD CONVERTER" style="whiteSpace=wrap;html=1;shadow=1;fontSize=18;fillColor=#f5f5f5;strokeColor=#666666;" vertex="1" parent="MxNS5dehUmEeH4CpXouu-20">
          <mxGeometry x="60" y="170" width="150" height="70" as="geometry" />
        </mxCell>
        <mxCell id="MxNS5dehUmEeH4CpXouu-27" value="" style="swimlane;startSize=0;" vertex="1" parent="1">
          <mxGeometry x="1200" y="760" width="470" height="210" as="geometry" />
        </mxCell>
        <mxCell id="MxNS5dehUmEeH4CpXouu-28" value="KEYCLOAK" style="whiteSpace=wrap;html=1;shadow=1;fontSize=18;fillColor=#f5f5f5;strokeColor=#666666;" vertex="1" parent="MxNS5dehUmEeH4CpXouu-27">
          <mxGeometry x="280" y="70" width="150" height="70" as="geometry" />
        </mxCell>
        <mxCell id="MxNS5dehUmEeH4CpXouu-37" style="edgeStyle=orthogonalEdgeStyle;rounded=0;orthogonalLoop=1;jettySize=auto;html=1;entryX=0;entryY=0.5;entryDx=0;entryDy=0;" edge="1" parent="MxNS5dehUmEeH4CpXouu-27" source="MxNS5dehUmEeH4CpXouu-30" target="MxNS5dehUmEeH4CpXouu-28">
          <mxGeometry relative="1" as="geometry" />
        </mxCell>
        <mxCell id="MxNS5dehUmEeH4CpXouu-30" value="&lt;div&gt;AUTHEN SERVICE&lt;/div&gt;" style="whiteSpace=wrap;html=1;shadow=1;fontSize=18;fillColor=#f5f5f5;strokeColor=#666666;" vertex="1" parent="MxNS5dehUmEeH4CpXouu-27">
          <mxGeometry x="50" y="70" width="150" height="70" as="geometry" />
        </mxCell>
        <mxCell id="MxNS5dehUmEeH4CpXouu-34" style="edgeStyle=orthogonalEdgeStyle;rounded=0;orthogonalLoop=1;jettySize=auto;html=1;entryX=1;entryY=0.5;entryDx=0;entryDy=0;" edge="1" parent="1" source="MxNS5dehUmEeH4CpXouu-33" target="3a17f1ce550125da-4">
          <mxGeometry relative="1" as="geometry">
            <Array as="points">
              <mxPoint x="880" y="465" />
              <mxPoint x="880" y="960" />
            </Array>
          </mxGeometry>
        </mxCell>
        <mxCell id="MxNS5dehUmEeH4CpXouu-35" style="edgeStyle=orthogonalEdgeStyle;rounded=0;orthogonalLoop=1;jettySize=auto;html=1;" edge="1" parent="1" source="MxNS5dehUmEeH4CpXouu-33" target="MxNS5dehUmEeH4CpXouu-20">
          <mxGeometry relative="1" as="geometry" />
        </mxCell>
        <mxCell id="MxNS5dehUmEeH4CpXouu-38" style="edgeStyle=orthogonalEdgeStyle;rounded=0;orthogonalLoop=1;jettySize=auto;html=1;entryX=0;entryY=0.5;entryDx=0;entryDy=0;" edge="1" parent="1" source="MxNS5dehUmEeH4CpXouu-33" target="MxNS5dehUmEeH4CpXouu-30">
          <mxGeometry relative="1" as="geometry" />
        </mxCell>
        <mxCell id="MxNS5dehUmEeH4CpXouu-40" style="edgeStyle=orthogonalEdgeStyle;rounded=0;orthogonalLoop=1;jettySize=auto;html=1;entryX=0.5;entryY=0;entryDx=0;entryDy=0;" edge="1" parent="1" source="MxNS5dehUmEeH4CpXouu-33" target="MxNS5dehUmEeH4CpXouu-39">
          <mxGeometry relative="1" as="geometry" />
        </mxCell>
        <mxCell id="MxNS5dehUmEeH4CpXouu-33" value="API BUSINESS" style="whiteSpace=wrap;html=1;shadow=1;fontSize=18;fillColor=#f5f5f5;strokeColor=#666666;" vertex="1" parent="1">
          <mxGeometry x="940" y="390" width="180" height="150" as="geometry" />
        </mxCell>
        <mxCell id="MxNS5dehUmEeH4CpXouu-39" value="ELK" style="whiteSpace=wrap;html=1;shadow=1;fontSize=18;fillColor=#f5f5f5;strokeColor=#666666;" vertex="1" parent="1">
          <mxGeometry x="930" y="1060" width="180" height="150" as="geometry" />
        </mxCell>
      </root>
    </mxGraphModel>
  </diagram>
</mxfile>
